# xmcd CD database file
#
# Track frame offsets:
#	150
#	9170
#	18410
#	29805
#	42117
#	53617
#	60462
#	76332
#	113290
#	125577
#	141430
#	150870
#	173002
#	190625
#	209900
#	216195
#	227595
#	234385
#	241592
#	272360
#
# Disc length: 4036 seconds
#
# Revision: 0
# Processed by: cddbd v1.5PL3 Copyright (c) Steve Scherf et al.
# Submitted via: CDex 1.51
#
DISCID=f60fc214
DTITLE=Richard Giangiulio and Paul Riedo - Pistons And Pipes
DYEAR=1989
DGENRE=Brass and Organ
TTITLE0=Handel--Suite in D Major  I.Overture
TTITLE1=Handel--Suite in D Major  II.Gigue
TTITLE2=Handel--Suite in D Major  III.Aire
TTITLE3=Handel--Suite in D Major  IV.March
TTITLE4=Fantini--Sonata No.3, detta del Niccolini
TTITLE5=Fantini--Sonata No.5, detta del' Adimari
TTITLE6=Fantini--Sonata No.8, detta del Nero
TTITLE7=Persichetti--The Hollow Men
TTITLE8=Baldassare--Sonata in F, No.1  I.Allegro
TTITLE9=Baldassare--Sonata in F, No.1  II.Grave
TTITLE10=Baldassare--Sonata in F, No.1  III.Allegro
TTITLE11=Hovhaness--Sonata for Trumpet and Organ  I.Senza Misura
TTITLE12=Hovhaness--Sonata for Trumpet and Organ  II.Senza Misura
TTITLE13=Hovhaness--Sonata for Trumpet and Organ  III.Senza Misura
TTITLE14=Grossi--Sonata Decima, Op.3  I.Vivace
TTITLE15=Grossi--Sonata Decima, Op.3  II.Adagio
TTITLE16=Grossi--Sonata Decima, Op.3  III.Grave
TTITLE17=Grossi--Sonata Decima, Op.3  IV.Presto
TTITLE18=Tomasi--Variations Gregoriennes
TTITLE19=Bellini--Concerto in E-flat
EXTD=YEAR: 1989
EXTT0=
EXTT1=
EXTT2=
EXTT3=
EXTT4=
EXTT5=
EXTT6=
EXTT7=
EXTT8=
EXTT9=
EXTT10=
EXTT11=
EXTT12=
EXTT13=
EXTT14=
EXTT15=
EXTT16=
EXTT17=
EXTT18=
EXTT19=
PLAYORDER=
